<?xml version="1.0" standalone="no"?>
<!DOCTYPE svg PUBLIC "-//W3C//DTD SVG 20010904//EN"
 "http://www.w3.org/TR/2001/REC-SVG-20010904/DTD/svg10.dtd">
<svg version="1.0" xmlns="http://www.w3.org/2000/svg"
 width="200.000000pt" height="200.000000pt" viewBox="0 0 200.000000 200.000000"
 preserveAspectRatio="xMidYMid meet">
<metadata>
Created by potrace 1.14, written by Peter Selinger 2001-2017
</metadata>
<g transform="translate(0.000000,200.000000) scale(0.100000,-0.100000)"
fill="#000000" stroke="none">
<path d="M827 1474 c-3 -3 9 -29 27 -57 33 -53 66 -143 66 -179 0 -22 -58
-108 -73 -108 -5 0 -43 16 -84 36 -107 51 -123 56 -123 41 -1 -33 -13 -222
-14 -224 -1 -1 -49 -4 -106 -5 l-105 -4 2 -27 c3 -39 132 -302 180 -365 51
-67 94 -99 162 -119 91 -26 216 -2 260 51 21 25 68 19 109 -13 66 -52 153 -64
251 -34 79 25 151 99 218 228 64 124 125 266 118 274 -4 3 -52 7 -108 9 -56 2
-103 5 -103 5 -2 3 -14 172 -14 204 l0 32 -37 -15 c-52 -21 -229 -111 -272
-139 -48 -30 -70 -19 -105 53 -16 31 -39 70 -53 87 -14 16 -40 56 -59 89 -27
47 -34 69 -34 112 0 56 -6 62 -40 44 -16 -8 -22 -6 -32 10 -13 21 -21 24 -31
14z m127 -361 c-10 -7 -29 -13 -43 -13 l-26 1 30 24 c23 19 32 21 43 13 12
-10 11 -14 -4 -25z"/>
</g>
</svg>
